<?xml version="1.0" standalone="no"?>
<!DOCTYPE svg PUBLIC "-//W3C//DTD SVG 20010904//EN"
 "http://www.w3.org/TR/2001/REC-SVG-20010904/DTD/svg10.dtd">
<svg version="1.0" xmlns="http://www.w3.org/2000/svg"
 width="1080.000000pt" height="1080.000000pt" viewBox="0 0 1080.000000 1080.000000"
 preserveAspectRatio="xMidYMid meet">

<g transform="translate(0.000000,1080.000000) scale(0.100000,-0.100000)"
fill="#FFFFFF" stroke="none">
<path d="M6471 9077 c-35 -83 -75 -174 -88 -202 -13 -27 -40 -88 -60 -135 -20
-47 -62 -145 -94 -218 -33 -74 -59 -136 -59 -138 0 -3 -15 -37 -34 -77 -18
-40 -53 -117 -76 -172 -23 -55 -53 -122 -65 -150 -20 -44 -129 -295 -213 -490
-17 -38 -65 -149 -107 -245 -42 -96 -104 -238 -137 -315 -33 -77 -68 -158 -78
-180 -10 -22 -42 -94 -70 -160 -29 -66 -62 -142 -75 -170 -12 -27 -39 -89 -60
-137 -20 -47 -44 -93 -53 -101 -10 -8 -93 -45 -187 -82 -175 -68 -186 -73
-245 -98 -47 -20 -478 -186 -600 -231 -19 -7 -141 -54 -270 -103 -129 -50
-329 -125 -445 -168 -115 -42 -237 -88 -270 -100 -33 -13 -100 -38 -150 -55
-49 -18 -119 -42 -155 -55 -80 -30 -410 -142 -544 -185 -115 -38 -113 -39
-146 65 -120 374 -434 721 -835 923 -286 144 -566 213 -881 216 -195 1 -184
15 -184 -220 0 -201 6 -241 56 -392 144 -432 492 -767 971 -931 124 -43 346
-88 470 -97 66 -4 107 -12 114 -20 11 -13 7 -54 -20 -229 -38 -236 -112 -554
-225 -965 -15 -52 -38 -138 -52 -190 -14 -52 -36 -131 -48 -175 -13 -44 -35
-123 -50 -175 -14 -52 -55 -203 -92 -335 -36 -132 -75 -271 -85 -310 -11 -38
-26 -92 -34 -120 -8 -27 -30 -108 -50 -178 -19 -70 -51 -181 -70 -247 -23 -76
-33 -128 -29 -144 l6 -26 919 0 c623 0 919 3 919 10 0 11 60 145 159 353 34
71 61 130 61 133 0 2 26 59 58 126 32 68 67 142 77 166 10 23 24 42 30 42 6 0
75 -129 152 -287 78 -159 169 -345 204 -415 l62 -128 1544 0 c896 0 1543 4
1543 9 0 5 28 69 63 142 35 74 106 224 157 334 51 110 98 205 104 212 15 17
25 8 78 -72 25 -38 128 -189 227 -335 100 -145 181 -270 181 -277 0 -10 168
-13 849 -13 799 0 849 1 855 18 3 9 13 28 22 42 21 35 12 78 -34 157 -21 37
-63 113 -92 168 -29 55 -87 161 -128 235 -75 135 -177 323 -237 435 -17 33
-97 179 -177 325 -80 146 -163 299 -185 340 -22 41 -65 120 -95 175 -56 102
-97 177 -163 300 -21 39 -58 105 -82 149 -23 43 -43 80 -43 82 0 3 -10 21 -23
42 -13 20 -44 75 -69 122 -132 247 -141 259 -193 260 -17 0 -41 -7 -54 -16
-21 -15 -121 -212 -221 -434 -21 -47 -73 -157 -115 -245 -71 -148 -93 -194
-185 -390 -56 -120 -195 -414 -259 -548 -34 -71 -61 -130 -61 -131 0 -2 -35
-77 -78 -167 -43 -90 -96 -202 -118 -248 -21 -45 -64 -133 -94 -195 l-55 -111
-415 0 -415 0 3 105 c2 58 5 116 7 130 2 14 9 102 15 195 6 94 13 184 15 200
2 17 6 77 10 135 3 58 8 119 10 135 2 17 6 73 10 125 3 52 8 122 10 155 25
306 25 339 6 358 -15 16 -24 17 -57 8 -21 -5 -118 -24 -214 -40 -180 -31 -223
-39 -610 -110 -124 -22 -252 -46 -285 -52 -33 -6 -91 -16 -130 -24 -91 -17
-164 -31 -305 -55 -140 -24 -216 -38 -475 -86 -144 -27 -419 -75 -476 -84 -96
-14 -85 -1 -207 -265 -98 -212 -132 -286 -172 -370 -66 -137 -131 -277 -167
-360 -20 -44 -40 -86 -45 -93 -8 -9 -138 -12 -589 -12 -564 0 -579 0 -579 19
0 11 16 75 36 143 19 68 60 213 90 323 31 110 62 223 69 250 8 28 30 106 48
175 56 206 136 496 177 645 129 464 213 874 238 1165 l7 84 50 17 c28 9 86 28
130 42 334 104 627 206 1120 392 77 29 160 60 185 68 51 17 434 163 465 176
11 5 56 23 100 39 271 103 902 351 1070 420 l90 38 141 324 c77 179 171 395
208 480 38 85 86 198 108 250 22 52 49 115 61 140 11 25 44 99 72 165 128 295
286 659 305 700 31 68 129 292 157 360 66 160 85 197 99 202 5 2 133 -244 283
-547 151 -302 281 -556 290 -563 9 -8 131 -58 271 -111 140 -54 293 -113 340
-131 212 -82 407 -157 540 -208 421 -161 557 -214 683 -263 75 -30 140 -54
142 -54 3 0 56 -20 118 -44 62 -24 220 -86 352 -136 412 -159 438 -169 448
-179 7 -7 -5 -43 -35 -108 -26 -54 -99 -213 -163 -353 -64 -140 -132 -288
-152 -328 -84 -178 -274 -286 -488 -277 -33 2 -134 6 -225 9 -91 4 -237 11
-325 16 -88 6 -236 15 -330 20 -93 6 -228 15 -300 20 -71 6 -168 12 -215 15
-383 26 -420 33 -499 95 -108 85 -148 195 -127 345 4 28 3 55 -1 61 -10 14
-254 124 -275 124 -27 0 -46 -34 -64 -110 -22 -96 -15 -267 14 -358 48 -150
182 -313 322 -390 135 -76 192 -86 580 -112 297 -20 606 -40 710 -45 58 -3
121 -8 140 -10 87 -9 413 -20 595 -19 197 0 201 1 295 32 175 59 322 160 418
288 50 67 112 184 177 334 18 41 52 116 75 165 23 50 68 146 99 215 32 69 84
182 116 253 33 70 65 127 72 127 10 0 13 26 13 110 0 103 -1 110 -20 110 -10
0 -43 9 -72 21 -29 12 -159 62 -288 111 -335 128 -313 120 -785 301 -700 269
-769 297 -778 310 -4 6 -181 358 -393 782 -212 423 -393 775 -402 782 -27 20
-71 16 -93 -9 -11 -13 -63 -122 -115 -243 -52 -121 -103 -238 -113 -260 -10
-22 -44 -101 -76 -175 -62 -145 -73 -166 -87 -152 -5 5 -146 284 -313 620
l-305 612 -73 0 -72 0 -64 -153z m1453 -1284 c86 -171 156 -316 156 -322 0
-18 -24 -13 -95 19 -37 17 -71 30 -77 30 -5 0 -24 6 -41 14 -18 8 -90 37 -162
65 -71 27 -134 56 -139 64 -7 11 -3 29 12 59 20 40 46 100 126 288 37 88 45
102 56 98 5 -2 79 -143 164 -315z m-7164 -1853 c498 -93 926 -417 1081 -820
16 -41 29 -81 29 -89 0 -32 -261 9 -452 70 -303 98 -573 327 -698 594 -34 73
-80 209 -80 237 0 16 23 27 45 22 6 -1 39 -8 75 -14z m7170 -2219 c0 -3 48
-94 106 -201 58 -107 134 -247 169 -310 34 -63 87 -161 118 -217 31 -56 80
-146 108 -200 29 -54 55 -102 59 -108 9 -12 32 -54 175 -320 144 -267 174
-321 207 -378 15 -26 28 -52 28 -57 0 -6 -192 -10 -508 -10 l-508 0 -146 213
c-80 116 -184 268 -232 337 -133 193 -128 163 -58 310 33 69 73 154 90 190 54
117 123 264 157 335 55 116 135 285 171 362 25 54 38 71 49 67 8 -4 15 -9 15
-13z m-2384 -726 c1 -33 -3 -100 -7 -150 -8 -91 -25 -328 -35 -465 -3 -41 -9
-124 -14 -185 -5 -60 -12 -163 -16 -227 -3 -65 -9 -118 -13 -118 -13 0 -37 56
-110 255 -38 105 -106 289 -151 410 -137 368 -152 409 -153 429 -2 23 29 33
183 61 52 9 136 25 185 35 131 26 130 27 131 -45z m-842 -142 c10 -27 44 -118
76 -204 101 -267 260 -707 260 -718 0 -8 -146 -10 -517 -9 l-518 3 -187 375
c-102 206 -187 383 -187 392 -1 23 6 26 80 37 35 5 136 23 224 40 88 16 266
48 395 71 129 22 251 45 270 49 76 19 86 15 104 -36z"/>
<path d="M7557 6949 c-52 -12 -87 -32 -124 -71 -44 -45 -63 -96 -63 -168 0
-90 41 -158 126 -211 58 -35 162 -34 226 4 140 82 169 249 66 372 -50 59 -152
92 -231 74z"/>
</g>
</svg>
